<svg version="1.1" id="Layer_1" xmlns="http://www.w3.org/2000/svg" xmlns:xlink="http://www.w3.org/1999/xlink" x="0px" y="0px"
	 width="100%" viewBox="0 0 427 259" enable-background="new 0 0 427 259" xml:space="preserve">
<path fill="#181C37" opacity="1.000000" stroke="none" 
	d="
M320.000000,260.000000 
	C213.333374,260.000000 107.166740,260.000000 1.000085,260.000000 
	C1.000057,173.666733 1.000057,87.333473 1.000028,1.000155 
	C143.333206,1.000103 285.666412,1.000103 427.999725,1.000052 
	C427.999817,87.333183 427.999817,173.666367 427.999908,259.999756 
	C392.166656,260.000000 356.333344,260.000000 320.000000,260.000000 
M325.001617,187.450058 
	C324.539093,190.067917 324.136230,192.698013 323.603088,195.301392 
	C321.898193,203.626205 320.721680,204.640945 312.325165,206.055511 
	C302.812744,207.658051 293.278442,209.181961 283.835907,211.137299 
	C267.753906,214.467545 251.382050,217.053085 237.094147,225.994247 
	C232.578812,228.819855 228.323944,232.061676 223.949875,235.113007 
	C224.131088,235.510254 224.312317,235.907501 224.493530,236.304749 
	C247.794952,234.417908 271.012299,235.081528 294.181641,237.927521 
	C317.299927,240.767258 339.843567,246.156738 362.317230,253.444229 
	C375.716858,192.484146 394.426575,133.999481 424.487274,78.731247 
	C413.522980,78.731247 403.344910,78.731247 392.596924,78.731247 
	C396.050781,69.290352 399.269165,60.493141 402.700867,51.112785 
	C392.621826,51.112785 383.350220,51.112785 373.515076,51.112785 
	C376.207581,42.236893 378.748108,33.861988 381.303986,25.436443 
	C362.421173,23.528181 304.433289,41.677616 282.649780,56.571949 
	C310.385834,49.569717 336.989716,42.853306 364.832062,35.824230 
	C348.177826,85.942833 334.753998,135.782318 325.001617,187.450058 
M94.677490,247.032516 
	C132.751785,236.912613 171.449203,233.062195 211.076279,235.149582 
	C206.258942,231.409286 201.376038,227.793442 196.066406,224.984131 
	C173.628723,213.112442 149.337143,208.006821 124.262985,206.114166 
	C115.820229,205.476883 113.042618,203.136032 111.958488,194.841095 
	C111.506744,191.384705 111.045120,187.901779 110.196938,184.529266 
	C100.672379,146.658188 91.131035,108.791084 81.454109,70.958748 
	C78.639542,59.955032 75.378883,49.065422 72.194519,37.664566 
	C98.467384,40.705395 123.211182,48.862125 148.473587,54.766373 
	C119.252510,38.741936 88.604454,27.362564 54.483673,24.978395 
	C57.169521,33.845840 59.705109,42.217178 62.433311,51.224464 
	C52.494698,51.224464 43.120243,51.224464 33.204834,51.224464 
	C36.609013,60.793186 39.786442,69.724541 43.141041,79.153900 
	C32.276924,79.153900 22.184982,79.153900 11.307655,79.153900 
	C41.867935,133.954422 60.034508,192.585052 73.459824,252.696609 
	C74.158905,252.841522 74.516655,253.036942 74.791626,252.954910 
	C81.160103,251.054535 87.519608,249.124054 94.677490,247.032516 
z"/>
<path fill="#FAFAFB" opacity="1.000000" stroke="none" 
	d="
M325.070007,187.025818 
	C334.753998,135.782318 348.177826,85.942833 364.832062,35.824230 
	C336.989716,42.853306 310.385834,49.569717 282.649780,56.571949 
	C304.433289,41.677616 362.421173,23.528181 381.303986,25.436443 
	C378.748108,33.861988 376.207581,42.236893 373.515076,51.112785 
	C383.350220,51.112785 392.621826,51.112785 402.700867,51.112785 
	C399.269165,60.493141 396.050781,69.290352 392.596924,78.731247 
	C403.344910,78.731247 413.522980,78.731247 424.487274,78.731247 
	C394.426575,133.999481 375.716858,192.484146 362.317230,253.444229 
	C339.843567,246.156738 317.299927,240.767258 294.181641,237.927521 
	C271.012299,235.081528 247.794952,234.417908 224.493530,236.304749 
	C224.312317,235.907501 224.131088,235.510254 223.949875,235.113007 
	C228.323944,232.061676 232.578812,228.819855 237.094147,225.994247 
	C251.382050,217.053085 267.753906,214.467545 283.835907,211.137299 
	C293.278442,209.181961 302.812744,207.658051 312.325165,206.055511 
	C320.721680,204.640945 321.898193,203.626205 323.603088,195.301392 
	C324.136230,192.698013 324.539093,190.067917 325.070007,187.025818 
M337.779816,216.202332 
	C350.786102,163.219452 364.761261,110.529869 385.886993,59.725315 
	C380.951508,58.362865 376.703644,57.190231 371.750763,55.822975 
	C368.091522,68.806030 364.326202,81.342026 361.033936,94.001038 
	C351.252014,131.613220 341.616516,169.263687 332.035461,206.927612 
	C330.763336,211.928513 328.246216,214.738800 322.853638,214.988892 
	C310.883911,215.544022 298.893433,216.001450 286.971680,217.133301 
	C276.864655,218.092834 266.842194,219.943222 256.782318,221.399414 
	C256.851471,221.849396 256.920654,222.299377 256.989838,222.749359 
	C257.266144,222.847275 257.546600,223.041168 257.818207,223.029480 
	C283.264618,221.935440 308.712067,220.859604 334.150818,219.607910 
	C335.312958,219.550720 336.396729,217.900452 337.779816,216.202332 
M399.708069,86.728729 
	C396.461060,85.720490 393.214020,84.712257 389.788788,83.648682 
	C374.948761,134.211929 360.293671,184.145142 345.585480,234.259216 
	C336.522003,233.034485 327.911957,231.871048 319.301941,230.707596 
	C319.191498,231.238312 319.081024,231.769028 318.970581,232.299744 
	C330.421143,235.414261 341.871704,238.528778 353.612671,241.722275 
	C365.976746,188.657883 382.947632,137.756348 404.870880,88.313293 
	C403.289093,87.811211 401.872498,87.361557 399.708069,86.728729 
z"/>
<path fill="#FAFAFB" opacity="1.000000" stroke="none" 
	d="
M94.279129,247.115829 
	C87.519608,249.124054 81.160103,251.054535 74.791626,252.954910 
	C74.516655,253.036942 74.158905,252.841522 73.459824,252.696609 
	C60.034508,192.585052 41.867935,133.954422 11.307655,79.153900 
	C22.184982,79.153900 32.276924,79.153900 43.141041,79.153900 
	C39.786442,69.724541 36.609013,60.793186 33.204834,51.224464 
	C43.120243,51.224464 52.494698,51.224464 62.433311,51.224464 
	C59.705109,42.217178 57.169521,33.845840 54.483673,24.978395 
	C88.604454,27.362564 119.252510,38.741936 148.473587,54.766373 
	C123.211182,48.862125 98.467384,40.705395 72.194519,37.664566 
	C75.378883,49.065422 78.639542,59.955032 81.454109,70.958748 
	C91.131035,108.791084 100.672379,146.658188 110.196938,184.529266 
	C111.045120,187.901779 111.506744,191.384705 111.958488,194.841095 
	C113.042618,203.136032 115.820229,205.476883 124.262985,206.114166 
	C149.337143,208.006821 173.628723,213.112442 196.066406,224.984131 
	C201.376038,227.793442 206.258942,231.409286 211.076279,235.149582 
	C171.449203,233.062195 132.751785,236.912613 94.279129,247.115829 
M102.757942,221.105026 
	C104.733360,221.249252 106.706703,221.474976 108.684509,221.525101 
	C128.971436,222.039307 149.260056,222.490173 169.545441,223.057358 
	C172.498962,223.139938 175.438019,223.740417 178.383759,224.101242 
	C177.604172,222.723541 176.645508,222.092651 175.594193,221.731400 
	C173.716202,221.086075 171.804504,220.505066 169.868317,220.068069 
	C152.078629,216.052979 134.064438,214.437225 115.837860,214.979156 
	C107.502335,215.227005 106.250854,214.190521 104.118874,206.129715 
	C92.989784,164.051804 81.872887,121.970634 70.713501,79.900742 
	C68.598175,71.926147 66.310295,63.997322 64.046692,55.848160 
	C58.962551,57.392410 54.569214,58.726837 50.129402,60.075382 
	C51.941021,64.702477 53.609314,68.846794 55.191910,73.023567 
	C72.464142,118.608360 86.222557,165.241608 97.129150,212.743881 
	C97.802582,215.676926 100.321526,218.186264 102.757942,221.105026 
M58.034569,124.452682 
	C54.079906,110.959045 50.125240,97.465416 46.062279,83.602249 
	C40.905899,85.248833 36.217644,86.745934 31.169390,88.357994 
	C53.047283,137.948044 70.076233,188.834457 82.539909,241.686310 
	C94.694641,238.458557 106.358360,235.361176 118.022072,232.263809 
	C117.907013,231.712357 117.791946,231.160919 117.676880,230.609467 
	C108.615494,231.897247 99.554115,233.185028 90.267113,234.504868 
	C79.510277,197.816635 68.869980,161.525848 58.034569,124.452682 
z"/>
<path fill="#1F233D" opacity="1.000000" stroke="none" 
	d="
M337.648376,216.597260 
	C336.396729,217.900452 335.312958,219.550720 334.150818,219.607910 
	C308.712067,220.859604 283.264618,221.935440 257.818207,223.029480 
	C257.546600,223.041168 257.266144,222.847275 256.989838,222.749359 
	C256.920654,222.299377 256.851471,221.849396 256.782318,221.399414 
	C266.842194,219.943222 276.864655,218.092834 286.971680,217.133301 
	C298.893433,216.001450 310.883911,215.544022 322.853638,214.988892 
	C328.246216,214.738800 330.763336,211.928513 332.035461,206.927612 
	C341.616516,169.263687 351.252014,131.613220 361.033936,94.001038 
	C364.326202,81.342026 368.091522,68.806030 371.750763,55.822975 
	C376.703644,57.190231 380.951508,58.362865 385.886993,59.725315 
	C364.761261,110.529869 350.786102,163.219452 337.648376,216.597260 
z"/>
<path fill="#1D213C" opacity="1.000000" stroke="none" 
	d="
M400.081970,86.820312 
	C401.872498,87.361557 403.289093,87.811211 404.870880,88.313293 
	C382.947632,137.756348 365.976746,188.657883 353.612671,241.722275 
	C341.871704,238.528778 330.421143,235.414261 318.970581,232.299744 
	C319.081024,231.769028 319.191498,231.238312 319.301941,230.707596 
	C327.911957,231.871048 336.522003,233.034485 345.585480,234.259216 
	C360.293671,184.145142 374.948761,134.211929 389.788788,83.648682 
	C393.214020,84.712257 396.461060,85.720490 400.081970,86.820312 
z"/>
<path fill="#1F233D" opacity="1.000000" stroke="none" 
	d="
M102.369873,220.998871 
	C100.321526,218.186264 97.802582,215.676926 97.129150,212.743881 
	C86.222557,165.241608 72.464142,118.608360 55.191910,73.023567 
	C53.609314,68.846794 51.941021,64.702477 50.129402,60.075382 
	C54.569214,58.726837 58.962551,57.392410 64.046692,55.848160 
	C66.310295,63.997322 68.598175,71.926147 70.713501,79.900742 
	C81.872887,121.970634 92.989784,164.051804 104.118874,206.129715 
	C106.250854,214.190521 107.502335,215.227005 115.837860,214.979156 
	C134.064438,214.437225 152.078629,216.052979 169.868317,220.068069 
	C171.804504,220.505066 173.716202,221.086075 175.594193,221.731400 
	C176.645508,222.092651 177.604172,222.723541 178.383759,224.101242 
	C175.438019,223.740417 172.498962,223.139938 169.545441,223.057358 
	C149.260056,222.490173 128.971436,222.039307 108.684509,221.525101 
	C106.706703,221.474976 104.733360,221.249252 102.369873,220.998871 
z"/>
<path fill="#1E223C" opacity="1.000000" stroke="none" 
	d="
M58.132122,124.843872 
	C68.869980,161.525848 79.510277,197.816635 90.267113,234.504868 
	C99.554115,233.185028 108.615494,231.897247 117.676880,230.609467 
	C117.791946,231.160919 117.907013,231.712357 118.022072,232.263809 
	C106.358360,235.361176 94.694641,238.458557 82.539909,241.686310 
	C70.076233,188.834457 53.047283,137.948044 31.169390,88.357994 
	C36.217644,86.745934 40.905899,85.248833 46.062279,83.602249 
	C50.125240,97.465416 54.079906,110.959045 58.132122,124.843872 
z"/>
</svg>