<svg version="1.1" id="Layer_1" xmlns="http://www.w3.org/2000/svg" xmlns:xlink="http://www.w3.org/1999/xlink" x="0px" y="0px"
	 width="100%" viewBox="0 0 691 487" enable-background="new 0 0 691 487" xml:space="preserve">
<path fill="#171B36" opacity="1.000000" stroke="none" 
	d="
M510.000000,488.000000 
	C340.000000,488.000000 170.500000,488.000000 1.000000,488.000000 
	C1.000000,325.666656 1.000000,163.333328 1.000000,1.000000 
	C231.333328,1.000000 461.666656,1.000000 692.000000,1.000000 
	C692.000000,163.333328 692.000000,325.666656 692.000000,488.000000 
	C631.500000,488.000000 571.000000,488.000000 510.000000,488.000000 
M543.880981,103.814987 
	C544.023010,103.978394 544.164978,104.141800 544.407715,105.115479 
	C543.651794,108.168594 543.027100,111.261299 542.119507,114.268608 
	C534.153748,140.661835 525.662964,166.907166 518.243225,193.452225 
	C505.883911,237.669174 495.807648,282.437378 487.853241,327.669312 
	C486.355591,336.185455 484.002899,338.559967 475.420959,340.236542 
	C472.156372,340.874298 468.859314,341.350189 465.602814,342.024323 
	C441.671722,346.978516 417.599243,351.357391 393.870056,357.142883 
	C376.619568,361.348816 361.634918,370.609283 347.125519,383.339691 
	C414.621216,378.166962 479.186859,385.995544 542.304626,407.312531 
	C561.041748,321.952026 587.282837,239.864487 629.352722,162.577881 
	C613.947937,162.577881 599.569946,162.577881 584.671753,162.577881 
	C589.508545,149.505035 594.142639,136.980164 598.938782,124.017227 
	C584.962708,124.017227 571.653503,124.017227 557.920959,124.017227 
	C561.712402,111.690834 565.395630,99.716362 569.120361,87.606850 
	C535.214172,87.642006 479.428864,105.170601 431.662598,131.383255 
	C468.947327,122.014603 506.232056,112.645943 543.880981,103.814987 
M130.577621,374.110138 
	C133.179474,385.038544 135.781326,395.966980 138.429962,407.091888 
	C201.145569,386.180481 265.142548,377.986694 332.143646,382.368958 
	C314.509918,367.807831 295.676971,359.221161 275.693817,353.221130 
	C253.519424,346.563202 230.924835,341.807983 207.650299,340.881531 
	C197.516968,340.478149 193.492645,336.420746 192.047287,326.260925 
	C191.298416,320.996735 190.824097,315.653839 189.562775,310.509033 
	C183.824554,287.103638 177.934326,263.734558 171.942780,240.392441 
	C162.025635,201.756760 152.040390,163.138290 141.951340,124.547195 
	C140.263367,118.090599 137.905945,111.809036 135.530365,104.429245 
	C148.753830,106.969376 161.034714,109.041519 173.175858,111.741844 
	C185.168732,114.409195 197.043488,117.623940 208.927460,120.760056 
	C220.760971,123.882843 232.541534,127.206306 244.345306,130.441788 
	C244.473618,129.962402 244.601929,129.483032 244.730240,129.003662 
	C203.097061,107.106949 159.759827,90.687454 111.509895,87.499916 
	C115.348282,100.100319 118.940514,111.892677 122.733376,124.343636 
	C108.632187,124.343636 95.418976,124.343636 81.757172,124.343636 
	C86.461334,137.451370 90.966774,150.005371 95.689796,163.165665 
	C80.442513,163.165665 66.049065,163.165665 51.073795,163.165665 
	C88.116943,229.642654 112.378304,300.299225 130.577621,374.110138 
z"/>
<path fill="#FCFCFC" opacity="1.000000" stroke="none" 
	d="
M543.516785,103.277290 
	C506.232056,112.645943 468.947327,122.014603 431.662598,131.383255 
	C479.428864,105.170601 535.214172,87.642006 569.120361,87.606850 
	C565.395630,99.716362 561.712402,111.690834 557.920959,124.017227 
	C571.653503,124.017227 584.962708,124.017227 598.938782,124.017227 
	C594.142639,136.980164 589.508545,149.505035 584.671753,162.577881 
	C599.569946,162.577881 613.947937,162.577881 629.352722,162.577881 
	C587.282837,239.864487 561.041748,321.952026 542.304626,407.312531 
	C479.186859,385.995544 414.621216,378.166962 347.125519,383.339691 
	C361.634918,370.609283 376.619568,361.348816 393.870056,357.142883 
	C417.599243,351.357391 441.671722,346.978516 465.602814,342.024323 
	C468.859314,341.350189 472.156372,340.874298 475.420959,340.236542 
	C484.002899,338.559967 486.355591,336.185455 487.853241,327.669312 
	C495.807648,282.437378 505.883911,237.669174 518.243225,193.452225 
	C525.662964,166.907166 534.153748,140.661835 542.119507,114.268608 
	C543.027100,111.261299 543.651794,108.168594 544.539062,104.559418 
	C544.285828,103.761345 543.901306,103.519318 543.516785,103.277290 
M523.190735,250.671280 
	C522.799316,252.286896 522.424255,253.906662 522.014038,255.517471 
	C514.632202,284.505005 507.260437,313.495178 499.851807,342.475891 
	C497.745178,350.716461 495.196838,352.717194 486.608917,353.176880 
	C474.800720,353.808838 462.975830,354.225159 451.188660,355.131317 
	C432.951782,356.533295 414.600739,357.302307 396.955566,362.885773 
	C396.227814,363.116089 395.589386,363.628723 394.909363,364.009857 
	C395.001495,364.300842 395.093658,364.591858 395.185791,364.882843 
	C432.328705,363.139221 469.471619,361.395599 506.763428,359.644958 
	C525.580566,283.907745 545.044128,208.528366 575.393311,136.082138 
	C568.796387,134.253281 562.641357,132.546951 555.887573,130.674606 
	C543.342773,170.311493 533.802917,210.215958 523.190735,250.671280 
M517.253906,380.114380 
	C505.438538,378.479950 493.623138,376.845520 481.807770,375.211060 
	C481.647766,375.963623 481.487762,376.716156 481.327789,377.468719 
	C497.481873,381.880035 513.635986,386.291351 530.186951,390.811066 
	C547.356567,316.659027 571.190125,245.381226 601.922546,175.969055 
	C594.667847,173.716873 587.922363,171.622757 580.980591,169.467712 
	C580.519836,170.731476 580.204346,171.466263 579.980957,172.228043 
	C560.305359,239.308121 540.645081,306.392731 520.932739,373.461975 
	C520.256226,375.763702 519.062256,377.913361 517.253906,380.114380 
z"/>
<path fill="#FCFCFC" opacity="1.000000" stroke="none" 
	d="
M130.444016,373.719421 
	C112.378304,300.299225 88.116943,229.642654 51.073795,163.165665 
	C66.049065,163.165665 80.442513,163.165665 95.689796,163.165665 
	C90.966774,150.005371 86.461334,137.451370 81.757172,124.343636 
	C95.418976,124.343636 108.632187,124.343636 122.733376,124.343636 
	C118.940514,111.892677 115.348282,100.100319 111.509895,87.499916 
	C159.759827,90.687454 203.097061,107.106949 244.730240,129.003662 
	C244.601929,129.483032 244.473618,129.962402 244.345306,130.441788 
	C232.541534,127.206306 220.760971,123.882843 208.927460,120.760056 
	C197.043488,117.623940 185.168732,114.409195 173.175858,111.741844 
	C161.034714,109.041519 148.753830,106.969376 135.530365,104.429245 
	C137.905945,111.809036 140.263367,118.090599 141.951340,124.547195 
	C152.040390,163.138290 162.025635,201.756760 171.942780,240.392441 
	C177.934326,263.734558 183.824554,287.103638 189.562775,310.509033 
	C190.824097,315.653839 191.298416,320.996735 192.047287,326.260925 
	C193.492645,336.420746 197.516968,340.478149 207.650299,340.881531 
	C230.924835,341.807983 253.519424,346.563202 275.693817,353.221130 
	C295.676971,359.221161 314.509918,367.807831 332.143646,382.368958 
	C265.142548,377.986694 201.145569,386.180481 138.429962,407.091888 
	C135.781326,395.966980 133.179474,385.038544 130.444016,373.719421 
M246.741653,355.848297 
	C229.799927,355.042816 212.865067,353.948761 195.913773,353.545563 
	C186.505600,353.321808 184.148254,352.203949 181.747086,343.181763 
	C165.807510,283.290009 149.906509,223.387939 133.962097,163.497452 
	C131.069138,152.630936 128.033875,141.802277 124.983742,130.661896 
	C118.025803,132.713074 111.870712,134.527573 105.641396,136.363953 
	C105.908485,137.510635 105.994057,138.355530 106.297554,139.113129 
	C133.792236,207.746750 154.725784,278.389099 171.035492,350.448425 
	C173.366760,360.748444 176.408783,362.827118 186.989426,362.575378 
	C216.619370,361.870392 246.266434,360.909698 275.768768,365.025513 
	C278.992004,365.475189 282.233765,365.792572 285.466919,366.171356 
	C285.527435,365.726074 285.587921,365.280823 285.648438,364.835541 
	C273.644226,359.174255 260.504425,358.096649 246.741653,355.848297 
M159.096802,372.355804 
	C139.345367,304.801483 119.593918,237.247162 99.764687,169.426773 
	C92.468559,171.769318 85.720642,173.935852 78.867188,176.136276 
	C109.589371,245.545990 133.366379,316.753113 150.774780,390.716217 
	C167.349991,386.315887 183.519943,382.035706 199.663071,377.656616 
	C200.022980,377.558990 200.077545,376.335724 200.452133,375.008148 
	C187.198181,376.969635 174.487274,378.850739 161.714081,380.741089 
	C160.803833,377.881714 160.051605,375.518738 159.096802,372.355804 
z"/>
<path fill="#1D203B" opacity="1.000000" stroke="none" 
	d="
M523.311646,250.280548 
	C533.802917,210.215958 543.342773,170.311493 555.887573,130.674606 
	C562.641357,132.546951 568.796387,134.253281 575.393311,136.082138 
	C545.044128,208.528366 525.580566,283.907745 506.763428,359.644958 
	C469.471619,361.395599 432.328705,363.139221 395.185791,364.882843 
	C395.093658,364.591858 395.001495,364.300842 394.909363,364.009857 
	C395.589386,363.628723 396.227814,363.116089 396.955566,362.885773 
	C414.600739,357.302307 432.951782,356.533295 451.188660,355.131317 
	C462.975830,354.225159 474.800720,353.808838 486.608917,353.176880 
	C495.196838,352.717194 497.745178,350.716461 499.851807,342.475891 
	C507.260437,313.495178 514.632202,284.505005 522.014038,255.517471 
	C522.424255,253.906662 522.799316,252.286896 523.311646,250.280548 
z"/>
<path fill="#1C203A" opacity="1.000000" stroke="none" 
	d="
M517.681641,380.124146 
	C519.062256,377.913361 520.256226,375.763702 520.932739,373.461975 
	C540.645081,306.392731 560.305359,239.308121 579.980957,172.228043 
	C580.204346,171.466263 580.519836,170.731476 580.980591,169.467712 
	C587.922363,171.622757 594.667847,173.716873 601.922546,175.969055 
	C571.190125,245.381226 547.356567,316.659027 530.186951,390.811066 
	C513.635986,386.291351 497.481873,381.880035 481.327789,377.468719 
	C481.487762,376.716156 481.647766,375.963623 481.807770,375.211060 
	C493.623138,376.845520 505.438538,378.479950 517.681641,380.124146 
z"/>
<path fill="#171B36" opacity="1.000000" stroke="none" 
	d="
M543.698853,103.546143 
	C543.901306,103.519318 544.285828,103.761345 544.488647,104.154289 
	C544.164978,104.141800 544.023010,103.978394 543.698853,103.546143 
z"/>
<path fill="#1D213B" opacity="1.000000" stroke="none" 
	d="
M247.187836,355.889954 
	C260.504425,358.096649 273.644226,359.174255 285.648438,364.835541 
	C285.587921,365.280823 285.527435,365.726074 285.466919,366.171356 
	C282.233765,365.792572 278.992004,365.475189 275.768768,365.025513 
	C246.266434,360.909698 216.619370,361.870392 186.989426,362.575378 
	C176.408783,362.827118 173.366760,360.748444 171.035492,350.448425 
	C154.725784,278.389099 133.792236,207.746750 106.297554,139.113129 
	C105.994057,138.355530 105.908485,137.510635 105.641396,136.363953 
	C111.870712,134.527573 118.025803,132.713074 124.983742,130.661896 
	C128.033875,141.802277 131.069138,152.630936 133.962097,163.497452 
	C149.906509,223.387939 165.807510,283.290009 181.747086,343.181763 
	C184.148254,352.203949 186.505600,353.321808 195.913773,353.545563 
	C212.865067,353.948761 229.799927,355.042816 247.187836,355.889954 
z"/>
<path fill="#1C203A" opacity="1.000000" stroke="none" 
	d="
M159.198090,372.755798 
	C160.051605,375.518738 160.803833,377.881714 161.714081,380.741089 
	C174.487274,378.850739 187.198181,376.969635 200.452133,375.008148 
	C200.077545,376.335724 200.022980,377.558990 199.663071,377.656616 
	C183.519943,382.035706 167.349991,386.315887 150.774780,390.716217 
	C133.366379,316.753113 109.589371,245.545990 78.867188,176.136276 
	C85.720642,173.935852 92.468559,171.769318 99.764687,169.426773 
	C119.593918,237.247162 139.345367,304.801483 159.198090,372.755798 
z"/>
</svg>