<?xml version="1.0" standalone="no"?>
<!DOCTYPE svg PUBLIC "-//W3C//DTD SVG 20010904//EN"
 "http://www.w3.org/TR/2001/REC-SVG-20010904/DTD/svg10.dtd">
<svg version="1.0" xmlns="http://www.w3.org/2000/svg"
 width="691.000000pt" height="487.000000pt" viewBox="0 0 691.000000 487.000000"
 preserveAspectRatio="xMidYMid meet">

<g transform="translate(0.000000,487.000000) scale(0.100000,-0.100000)"
fill="#000000" stroke="none">
<path d="M0 2435 l0 -2435 3455 0 3455 0 0 2435 0 2435 -3455 0 -3455 0 0
-2435z m1310 1548 c230 -31 511 -113 773 -224 140 -60 397 -185 397 -194 0 -2
-6 -2 -12 0 -54 18 -525 144 -655 176 -165 40 -452 93 -461 85 -2 -3 14 -60
37 -128 22 -68 78 -271 125 -453 224 -873 385 -1526 391 -1585 8 -79 35 -143
68 -165 17 -11 64 -19 144 -25 325 -25 677 -117 928 -243 93 -46 232 -134 254
-160 7 -9 -24 -10 -127 -4 -242 14 -655 -7 -935 -48 -235 -35 -548 -107 -760
-175 -55 -17 -100 -30 -102 -28 -2 2 -22 82 -45 178 -184 791 -416 1452 -720
2048 l-108 212 219 0 c126 0 219 4 219 9 0 5 -29 89 -65 187 -36 98 -65 182
-65 186 0 4 90 8 200 8 141 0 200 3 200 11 0 6 -22 83 -50 171 -27 88 -50 165
-50 173 0 15 9 14 200 -12z m4370 21 c0 -5 -98 -327 -107 -351 -4 -10 43 -13
200 -15 l205 -3 -69 -185 c-38 -102 -69 -188 -69 -192 0 -5 99 -8 220 -8 l219
0 -92 -182 c-307 -605 -554 -1305 -727 -2059 -23 -101 -45 -187 -49 -191 -3
-4 -58 9 -121 28 -511 156 -988 222 -1537 212 -156 -3 -283 -4 -283 -2 0 13
174 129 256 171 168 86 351 134 804 213 248 43 290 55 314 92 8 13 31 111 51
218 106 572 261 1182 452 1785 89 281 98 318 74 311 -91 -26 -1135 -286 -1137
-283 -5 5 246 125 392 187 287 124 591 209 867 245 124 16 137 17 137 9z"/>
<path d="M1138 3543 c-49 -14 -88 -29 -88 -33 0 -4 31 -87 69 -186 212 -550
462 -1388 582 -1949 15 -71 52 -115 96 -115 353 2 834 -10 918 -24 136 -21
148 -21 110 3 -86 54 -562 116 -837 109 -114 -3 -118 -2 -143 22 -27 27 -30
40 -400 1438 -164 618 -204 762 -214 761 -3 0 -45 -12 -93 -26z"/>
<path d="M873 3149 l-93 -30 14 -32 c296 -693 527 -1374 667 -1964 19 -79 39
-143 44 -143 6 0 117 27 248 62 164 42 237 66 237 75 0 10 -9 12 -32 8 -121
-22 -344 -52 -350 -47 -5 5 -414 1393 -603 2045 -9 31 -22 57 -28 56 -7 0 -54
-14 -104 -30z"/>
<path d="M5537 3533 c-38 -96 -191 -670 -462 -1738 -53 -209 -103 -390 -111
-402 -8 -12 -22 -27 -32 -32 -10 -5 -110 -15 -223 -21 -413 -22 -615 -47 -759
-94 l-45 -15 90 5 c211 11 966 44 1011 44 l49 0 89 348 c197 770 397 1409 572
1825 14 32 23 61 20 64 -5 5 -164 52 -177 53 -4 0 -14 -17 -22 -37z"/>
<path d="M5790 3168 c0 -19 -606 -2077 -613 -2085 -6 -6 -307 32 -349 43 -11
3 -18 0 -18 -9 0 -10 70 -33 238 -79 130 -35 238 -63 240 -62 2 1 27 98 57
215 158 628 400 1338 639 1871 l25 57 -94 31 c-105 33 -125 36 -125 18z"/>
</g>
</svg>
